<?xml version="1.0" encoding="utf-8"?>
<!-- Generator: Adobe Illustrator 23.0.0, SVG Export Plug-In . SVG Version: 6.00 Build 0)  -->
<svg version="1.1" id="Слой_1" xmlns="http://www.w3.org/2000/svg" xmlns:xlink="http://www.w3.org/1999/xlink" x="0px" y="0px"
	 viewBox="0 0 267 460.3" style="enable-background:new 0 0 267 460.3;" xml:space="preserve">
<g>
	<path d="M92.3,248.7c-4.7-0.4-5.5,7.3-0.8,8C96.2,257,97,249.3,92.3,248.7z"/>
	<path d="M102.3,267c4.7,0.4,5.5-7.4,0.8-8C98.4,258.7,97.6,266.4,102.3,267z"/>
	<path d="M87.6,262.2c-4.7-0.4-5.5,7.3-0.8,8C91.5,270.5,92.3,262.8,87.6,262.2z"/>
	<path d="M76.7,251.6c-5.8-3.7-12.6-5.6-19.2-7.5c-4.3-1.2-8.7-2.2-13.1-3c-1.6-0.2-3.6-1-5.1-0.7c-1.6,0.5-2.1,2.7-1.1,4
		c0.7,1,1.9,0.9,2.9,1.2c1.9,0.3,3.7,0.7,5.6,1.1c7.7,1.7,14.4,3.3,22.7,6.7c2.4,1.1,3.6,1.7,4.7,2.4c0.5,0.4,1.1,0.5,1.7,0.4
		C77.7,255.7,78.3,252.8,76.7,251.6z"/>
	<path d="M73,262.6c-8.8-0.5-17.7,0.2-26.4,1c-2.5,0.3-5,0.5-7.5,0.8c-1.2,0-2.5,0.7-2.7,2c-0.3,1.1,0.3,2.4,1.3,2.9
		c1.4,0.4,3-0.2,4.4-0.3c3.3-0.4,6.5-0.7,9.8-1c7.6-0.6,12.5-1,20.5-0.5C75.4,267.9,76,262.9,73,262.6z"/>
	<path d="M71.8,275.8c-7.2,2.7-14.4,5.7-21.3,9.1c-1.6,0.8-3.3,1.6-4.9,2.4c-1.1,0.4-2.1,1.4-2,2.7c-0.1,1.1,0.8,2.3,2,2.4
		c1.4,0,2.5-1.1,3.8-1.5c3-1.5,6-2.9,9-4.3c3.8-1.7,7.7-3.3,11.6-4.9c1.4-0.7,3.2-0.9,4.3-2C76,278.1,74.2,274.7,71.8,275.8z"/>
	<path d="M140.1,248.7c-4.7,0.6-3.9,8.3,0.8,8C145.6,256,144.8,248.3,140.1,248.7z"/>
	<path d="M129.2,259.1c-4.7,0.6-3.9,8.3,0.8,8C134.7,266.4,133.9,258.7,129.2,259.1z"/>
	<path d="M144.8,262.2c-4.7,0.6-3.9,8.4,0.8,8C150.3,269.5,149.5,261.8,144.8,262.2z"/>
	<path d="M163.1,253.2c8.3-3.3,15-5,22.7-6.7c1.9-0.4,3.7-0.8,5.6-1.1c1-0.2,2.2-0.2,2.9-1.2c1-1.3,0.4-3.5-1.1-4
		c-1.5-0.4-3.5,0.5-5.1,0.7c-4.4,0.9-8.8,1.9-13.1,3c-6.6,1.9-13.4,3.8-19.2,7.5c-1.6,1.2-1,4.1,1,4.5c0.6,0.1,1.2,0,1.7-0.4
		C159.5,254.9,160.7,254.3,163.1,253.2z"/>
	<path d="M195.9,266.5c-0.2-1.3-1.5-2-2.7-2c-2.5-0.3-5-0.6-7.5-0.8c-8.8-0.9-17.6-1.6-26.4-1c-2.9,0.4-2.4,5.3,0.5,5
		c8-0.4,12.9-0.1,20.5,0.5c3.3,0.3,6.5,0.6,9.8,1c1.5,0,3,0.7,4.4,0.3C195.6,268.9,196.2,267.6,195.9,266.5z"/>
	<path d="M186.8,287.3c-1.6-0.8-3.3-1.6-4.9-2.4c-7-3.4-14.1-6.3-21.3-9.1c-2.4-1.2-4.2,2.3-2.5,4c1.1,1.1,2.9,1.3,4.3,2
		c3.9,1.5,7.8,3.1,11.6,4.9c3,1.4,6,2.8,9,4.3c1.3,0.5,2.4,1.6,3.8,1.5c1.1-0.1,2-1.3,2-2.4C188.9,288.8,187.9,287.8,186.8,287.3z"
		/>
	<path d="M132.3,281.1c-0.8,0.5-1.2,1.4-1.8,2.1c-2.1,2.5-6.8,3.5-10.1-0.2c-0.1-0.2-1.3-1.7-1.8-3.9c-0.4-1.9-0.5-6.4-0.7-11
		c0-0.3,0-0.6,0-0.9c0-0.6,0-1.3,0-1.9c0.8-0.4,1.4-1,1.9-1.6c0.4-0.5,0.8-1,1.3-1.5c0.3-0.3,0.9-0.9,1.2-1.1
		c2.5-2.3,5.1-4.3,7.4-6.8c1.3-1.4,2.3-3.1,2.6-5c0.6-5.9-4.8-9.6-10.3-8.5c-2.4,0.4-4.3,1.8-5.9,3.6c-1.5-1.8-3.5-3.2-5.9-3.6
		c-5.5-1-10.9,2.6-10.3,8.5c0.3,1.9,1.3,3.7,2.6,5c2.3,2.5,4.9,4.5,7.4,6.8c0.3,0.3,0.8,0.8,1.2,1.1c0.4,0.5,0.9,1,1.3,1.5
		c0.2,0.3,0.5,0.6,0.8,0.9c0,0.9,0,1.8,0,2.7c0,0.3,0,0.6,0,0.9c-0.1,4.6-0.3,9.2-0.7,11c-0.5,2.1-1.7,3.7-1.8,3.9
		c-3.3,3.6-8,2.7-10.1,0.2c-0.7-0.7-1-1.6-1.8-2.1c-1-0.7-2.3-0.2-2.9,0.7c-1.5,2.3,1,4.3,2.4,5.8c4.2,4,11.6,3.4,15.4-1
		c0.7-0.8,1.3-1.7,1.8-2.6c0.5,0.9,1,1.8,1.8,2.6c3.7,4.4,11.1,5.1,15.4,1c1.4-1.5,3.9-3.6,2.4-5.8
		C134.6,280.9,133.2,280.5,132.3,281.1z"/>
</g>
<g>
	<path d="M187.9,362.7c-4.3-4.8-9.4-4.8-13.3-3.4c0.1-2.7-0.3-6-2-8.9c-1.7-2.8-4.3-4.6-7.8-5.4c-9.3-2.1-15.4,5.7-18.1,10.6
		c-3.7-3.4-9.7-6.2-16.6-2.3c-7.5,4.3-6.7,11.8-5.8,20.4c0.5,4.5,1,9.5,0.7,15.3c-0.6,12.4,1.2,22.2,2.8,28.2
		c1.7,6.2,7.9,11,15.6,12c0,0,0,0,0,0c1.6,0.2,3.3,0.3,5,0.3c1.2,0,2.4,0,3.7-0.1c12.3-1,18.7-14.3,23.3-24c1.5-3.1,2.7-5.7,3.9-7.5
		C184.5,390.3,195.8,371.5,187.9,362.7z M175.2,395.2c-1.4,2.1-2.7,4.9-4.3,8.1c-4.4,9.1-9.8,20.4-19.2,21.2
		c-2.8,0.2-5.4,0.2-7.7-0.1c-5.7-0.7-10.2-4.1-11.4-8.3c-1.5-5.7-3.2-14.9-2.6-26.7c0.3-6.2-0.3-11.5-0.8-16.1
		c-1-8.9-1.2-13,3.3-15.6c7-4,12.1,3,12.6,3.8c0.5,0.8,1.4,1.2,2.3,1.1c0.9-0.1,1.7-0.7,2.1-1.6c0.1-0.1,5.3-13.1,14.1-11.1
		c2.1,0.5,3.7,1.5,4.6,3.1c2.4,4,0.8,10.2,0.8,10.3c-0.3,1.1,0.2,2.2,1.1,2.8c0.9,0.6,2.1,0.5,3-0.2c0.3-0.2,6.2-5.2,11,0.2
		C188.7,371.1,182.2,384.9,175.2,395.2z"/>
	<ellipse transform="matrix(0.4404 -0.8978 0.8978 0.4404 -238.5512 346.3219)" cx="158.5" cy="364.5" rx="8.6" ry="6"/>
	<path d="M156.2,377.1c-20.4-3.6-20.1,9.9-20.1,21.5c0,11,3.6,20.6,11,21.6c7,1,13.1-6.8,18.7-17C171,393.7,179.2,381.2,156.2,377.1
		z"/>
	<ellipse transform="matrix(0.6779 -0.7351 0.7351 0.6779 -219.2333 249.2098)" cx="174.8" cy="374.8" rx="7.6" ry="5.7"/>
	<path d="M140,375.8c3.3-0.6,5.5-4.2,4.8-8.1c-0.7-3.9-3.9-6.6-7.3-6c-3.3,0.6-5.5,4.2-4.8,8.1C133.4,373.7,136.7,376.4,140,375.8z"
		/>
	<path d="M99.4,350.3c-6.9-4-12.9-1.1-16.6,2.3c-2.8-4.9-8.8-12.7-18.2-10.6c-3.5,0.8-6.1,2.6-7.8,5.4c-1.7,2.8-2.1,6.2-2,8.9
		c-3.9-1.4-9-1.4-13.3,3.4c-7.9,8.8,3.4,27.6,8.6,35.3c1.2,1.8,2.5,4.4,3.9,7.5c4.7,9.7,11.1,23,23.3,24c1.2,0.1,2.5,0.1,3.6,0.1
		c1.8,0,3.4-0.1,5.1-0.3c0,0,0,0,0,0c7.7-1,13.9-5.8,15.6-12c1.6-6,3.4-15.8,2.8-28.2c-0.3-5.8,0.3-10.9,0.7-15.3
		C106.1,362.1,106.9,354.6,99.4,350.3z M100.2,370.2c-0.5,4.6-1.1,9.9-0.8,16.1c0.6,11.8-1.1,21-2.6,26.7c-1.1,4.3-5.7,7.6-11.4,8.3
		c-2.4,0.3-5,0.3-7.7,0.1c-9.4-0.7-14.8-12.1-19.2-21.2c-1.6-3.2-2.9-6-4.3-8.1c-7-10.3-13.6-24.1-9-29.2c1.7-1.9,3.5-2.5,5.2-2.5
		c3,0,5.5,2,5.9,2.3c0.8,0.7,2,0.8,2.9,0.2c0.9-0.6,1.4-1.7,1.1-2.8c0-0.1-1.6-6.3,0.8-10.3c1-1.6,2.5-2.6,4.6-3.1
		c8.8-2,14.1,11,14.1,11.1c0.3,0.9,1.1,1.5,2.1,1.6c0.9,0.1,1.8-0.3,2.3-1.1c0.2-0.3,5.4-7.9,12.6-3.8
		C101.4,357.2,101.2,361.3,100.2,370.2z"/>
	<ellipse transform="matrix(0.8978 -0.4404 0.4404 0.8978 -151.9825 68.1308)" cx="70.8" cy="361.5" rx="6" ry="8.6"/>
	<path d="M73.2,374.1c-23,4.1-14.8,16.6-9.6,26.1c5.6,10.2,11.7,18,18.7,17c7.4-1.1,11-10.6,11-21.6C93.3,384,93.5,370.4,73.2,374.1
		z"/>
	<ellipse transform="matrix(0.7351 -0.6779 0.6779 0.7351 -237.6422 135.416)" cx="54.5" cy="371.8" rx="5.7" ry="7.6"/>
	<path d="M91.7,358.8c-3.3-0.6-6.6,2.1-7.3,6c-0.7,3.9,1.5,7.5,4.8,8.1c3.3,0.6,6.6-2.1,7.3-6S95,359.4,91.7,358.8z"/>
</g>
<g>
	<path d="M79.2,111.7c-6.8-38.6-40.3-86.8-44-44.2c-2.9,33.6,32.6,81.3,47.7,99.9c1.9,2.3,5.6,0.7,5.1-2.3
		C86.4,154.4,83.5,135.7,79.2,111.7z"/>
	<path d="M97.5,102.8C95.1,83,87.8,63.6,77,48.4C66.6,33.8,54.1,24.8,42.8,23.6c-7.1-0.7-19.9,1.1-26.8,21.7
		C0,92.8,71.3,179.8,74.4,183.5c1.1,1.3,2.9,1.5,4.2,0.4c1.3-1.1,1.5-2.9,0.4-4.2c-0.7-0.9-72.3-88.1-57.3-132.5
		c2.9-8.7,8.9-18.8,20.5-17.6c19.3,2,44.5,34,49.4,73.9c7.3,60.9,17,80.5,17.4,81.3c0.5,1,1.6,1.6,2.7,1.6c0.5,0,0.9-0.1,1.4-0.3
		c1.5-0.7,2.1-2.5,1.3-4C114.3,181.9,104.7,162.3,97.5,102.8z"/>
	<path d="M200.4,57.4c-11.6-5.1-21.6-5.5-29.7-1.3c-15.7,8.3-20.3,32.2-23.3,47.9c-4.4,22.9-17.1,80-17.2,80.6
		c-0.4,1.6,0.7,3.2,2.3,3.6c0.2,0,0.4,0.1,0.7,0.1c1.4,0,2.6-1,2.9-2.3c0.1-0.6,12.9-57.7,17.2-80.8c2.8-14.7,7-36.8,20.2-43.8
		c6.4-3.4,14.6-2.9,24.5,1.5c27.4,12,51.4,47.7,49.2,65.5c-0.7,6.1-4.3,9.6-10.9,10.7c-30.5,5.4-59.1-54.4-59.4-55
		c-0.7-1.5-2.5-2.1-4-1.4c-0.6,0.3-1.1,0.8-1.4,1.4c0,0,0,0,0,0c-4.6,9.8-9.1,21.6-10.9,31.9c-4.2,24-7.2,42.7-8.8,53.4
		c-0.4,2.9,3.3,4.6,5.1,2.3c9.5-11.7,23.6-30.1,34.2-53.4c3.2,4.1,6.7,8.1,10.5,11.7l-37.9,55c-0.9,1.4-0.6,3.2,0.8,4.2
		c0.5,0.4,1.1,0.5,1.7,0.5c1,0,1.9-0.5,2.5-1.3l37.4-54.4c8,6.7,16.9,11.3,26.3,11.3c1.6,0,3.3-0.1,5-0.4
		c9.1-1.6,14.7-7.3,15.8-15.9C255.8,107.1,228.2,69.6,200.4,57.4z"/>
</g>
</svg>
